<svg width="26" height="24" viewBox="0 0 26 24" fill="none" xmlns="http://www.w3.org/2000/svg">
<path fill-rule="evenodd" clip-rule="evenodd" d="M17.5465 20.62C17.5465 19.6182 18.3579 18.8067 19.3598 18.8067C20.3616 18.8067 21.173 19.6182 21.173 20.62C21.173 21.6218 20.3616 22.4333 19.3598 22.4333C18.3579 22.4333 17.5465 21.6218 17.5465 20.62V20.62Z" stroke="white" stroke-width="2" stroke-linecap="round" stroke-linejoin="round"/>
<path fill-rule="evenodd" clip-rule="evenodd" d="M7.87573 20.62C7.87573 19.6182 8.68717 18.8067 9.689 18.8067C10.6908 18.8067 11.5023 19.6182 11.5023 20.62C11.5023 21.6218 10.6908 22.4333 9.689 22.4333C8.68717 22.4333 7.87573 21.6218 7.87573 20.62V20.62Z" stroke="white" stroke-width="2" stroke-linecap="round" stroke-linejoin="round"/>
<path d="M1.83154 1.88294H4.91409L7.50138 15.0709C7.78908 16.5408 9.05395 17.5979 10.5233 17.5979H22.3819" stroke="white" stroke-width="2" stroke-linecap="round" stroke-linejoin="round"/>
<path d="M5.45813 4.30063H24.7996L23.9604 10.9094C23.8261 11.9682 22.9117 12.7625 21.8275 12.7625H7.06992" stroke="white" stroke-width="2" stroke-linecap="round" stroke-linejoin="round"/>
</svg>
