<svg width="35" height="35" viewBox="0 0 35 35" fill="none" xmlns="http://www.w3.org/2000/svg">
<path d="M17.1726 15.7584L16.4655 16.4655L17.1726 17.1726L17.8797 16.4655L17.1726 15.7584ZM15.7584 17.1726L16.4655 17.8797L17.1726 17.1726L16.4655 16.4655L15.7584 17.1726ZM17.1726 18.5868L17.8797 17.8797L17.1726 17.1726L16.4655 17.8797L17.1726 18.5868ZM18.5868 17.1726L17.8797 16.4655L17.1726 17.1726L17.8797 17.8797L18.5868 17.1726ZM25.0518 9.2934L26.466 10.7076C27.2471 9.92657 27.2471 8.66024 26.466 7.87919L25.0518 9.2934ZM25.0518 9.2934L25.0518 9.2934L26.466 7.87919C25.685 7.09814 24.4186 7.09814 23.6376 7.87919L25.0518 9.2934ZM17.8797 16.4655L25.0518 9.2934L23.6376 7.87919L16.4655 15.0513L17.8797 16.4655ZM9.29342 9.2934L16.4655 16.4655L17.8797 15.0513L10.7076 7.87919L9.29342 9.2934ZM9.29342 9.2934L10.7076 7.87919C9.92658 7.09814 8.66025 7.09814 7.8792 7.87919L9.29342 9.2934ZM9.29342 9.2934L7.8792 7.87919C7.09816 8.66024 7.09816 9.92657 7.8792 10.7076L9.29342 9.2934ZM16.4655 16.4655L9.29342 9.2934L7.8792 10.7076L15.0513 17.8797L16.4655 16.4655ZM9.29342 25.0518L16.4655 17.8797L15.0513 16.4655L7.8792 23.6376L9.29342 25.0518ZM9.29342 25.0518L7.8792 23.6376C7.09816 24.4186 7.09815 25.6849 7.8792 26.466L9.29342 25.0518ZM9.29342 25.0518L7.8792 26.466C8.66025 27.247 9.92658 27.247 10.7076 26.466L9.29342 25.0518ZM16.4655 17.8797L9.29342 25.0518L10.7076 26.466L17.8797 19.2939L16.4655 17.8797ZM25.0518 25.0518L17.8797 17.8797L16.4655 19.2939L23.6376 26.466L25.0518 25.0518ZM25.0518 25.0518L23.6376 26.466C24.4186 27.247 25.685 27.247 26.466 26.466L25.0518 25.0518ZM25.0518 25.0518L26.466 26.466C27.2471 25.6849 27.2471 24.4186 26.466 23.6376L25.0518 25.0518ZM17.8797 17.8797L25.0518 25.0518L26.466 23.6376L19.2939 16.4655L17.8797 17.8797ZM25.0518 9.2934L17.8797 16.4655L19.2939 17.8797L26.466 10.7076L25.0518 9.2934Z" fill="white"/>
</svg>
